# This file uses centimeters as units for non-parametric coordinates.

mtllib HexRing.mtl
g default
v 0.402754 -1.000000 -0.697590
v -0.402754 -1.000000 -0.697590
v -0.805507 -1.000000 -0.000000
v -0.402754 -1.000000 0.697590
v 0.402754 -1.000000 0.697590
v 0.805507 -1.000000 0.000000
v 0.402754 1.000000 -0.697590
v -0.402754 1.000000 -0.697590
v -0.805507 1.000000 -0.000000
v -0.402754 1.000000 0.697590
v 0.402754 1.000000 0.697590
v 0.805507 1.000000 0.000000
v 0.498031 -1.000000 -0.862615
v -0.498031 -1.000000 -0.862615
v -0.498031 1.000000 -0.862615
v 0.498031 1.000000 -0.862615
v -0.996062 -1.000000 -0.000000
v -0.996062 1.000000 -0.000000
v -0.498031 -1.000000 0.862615
v -0.498031 1.000000 0.862615
v 0.498031 -1.000000 0.862615
v 0.498031 1.000000 0.862615
v 0.996062 -1.000000 0.000000
v 0.996062 1.000000 0.000000
vt 0.375000 0.312500
vt 0.416667 0.312500
vt 0.458333 0.312500
vt 0.500000 0.312500
vt 0.541667 0.312500
vt 0.583333 0.312500
vt 0.625000 0.312500
vt 0.375000 0.688440
vt 0.416667 0.688440
vt 0.458333 0.688440
vt 0.500000 0.688440
vt 0.541667 0.688440
vt 0.583333 0.688440
vt 0.625000 0.688440
vt 0.375000 0.312500
vt 0.416667 0.312500
vt 0.416667 0.688440
vt 0.375000 0.688440
vt 0.458333 0.312500
vt 0.458333 0.688440
vt 0.500000 0.312500
vt 0.500000 0.688440
vt 0.541667 0.312500
vt 0.541667 0.688440
vt 0.583333 0.312500
vt 0.583333 0.688440
vt 0.625000 0.312500
vt 0.625000 0.688440
vt 0.375000 0.312500
vt 0.416667 0.312500
vt 0.416667 0.688440
vt 0.375000 0.688440
vt 0.458333 0.312500
vt 0.458333 0.688440
vt 0.500000 0.312500
vt 0.500000 0.688440
vt 0.541667 0.312500
vt 0.541667 0.688440
vt 0.583333 0.312500
vt 0.583333 0.688440
vt 0.625000 0.312500
vt 0.625000 0.688440
vn 0.000000 0.000000 -1.000000
vn 0.000000 0.000000 -1.000000
vn 0.000000 0.000000 -1.000000
vn 0.000000 0.000000 -1.000000
vn -0.866025 0.000000 -0.500000
vn -0.866025 0.000000 -0.500000
vn -0.866025 0.000000 -0.500000
vn -0.866025 0.000000 -0.500000
vn -0.866025 0.000000 0.500000
vn -0.866025 0.000000 0.500000
vn -0.866025 0.000000 0.500000
vn -0.866025 0.000000 0.500000
vn -0.000000 0.000000 1.000000
vn -0.000000 0.000000 1.000000
vn -0.000000 0.000000 1.000000
vn -0.000000 0.000000 1.000000
vn 0.866025 0.000000 0.500000
vn 0.866025 0.000000 0.500000
vn 0.866025 0.000000 0.500000
vn 0.866025 0.000000 0.500000
vn 0.866025 0.000000 -0.500000
vn 0.866025 0.000000 -0.500000
vn 0.866025 0.000000 -0.500000
vn 0.866025 0.000000 -0.500000
vn -0.000000 0.000000 1.000000
vn -0.000000 0.000000 1.000000
vn -0.000000 0.000000 1.000000
vn -0.000000 0.000000 1.000000
vn 0.866025 0.000000 0.500000
vn 0.866025 0.000000 0.500000
vn 0.866025 0.000000 0.500000
vn 0.866025 0.000000 0.500000
vn 0.866025 0.000000 -0.500000
vn 0.866025 0.000000 -0.500000
vn 0.866025 0.000000 -0.500000
vn 0.866025 0.000000 -0.500000
vn 0.000000 0.000000 -1.000000
vn 0.000000 0.000000 -1.000000
vn 0.000000 0.000000 -1.000000
vn 0.000000 0.000000 -1.000000
vn -0.866025 0.000000 -0.500000
vn -0.866025 0.000000 -0.500000
vn -0.866025 0.000000 -0.500000
vn -0.866025 0.000000 -0.500000
vn -0.866025 0.000000 0.500000
vn -0.866025 0.000000 0.500000
vn -0.866025 0.000000 0.500000
vn -0.866025 0.000000 0.500000
vn 0.000000 -1.000000 0.000000
vn 0.000000 -1.000000 0.000000
vn 0.000000 -1.000000 0.000000
vn 0.000000 -1.000000 0.000000
vn 0.000000 1.000000 0.000000
vn 0.000000 1.000000 0.000000
vn 0.000000 1.000000 0.000000
vn 0.000000 1.000000 0.000000
vn 0.000000 -1.000000 0.000000
vn 0.000000 -1.000000 0.000000
vn 0.000000 -1.000000 0.000000
vn 0.000000 -1.000000 0.000000
vn 0.000000 1.000000 0.000000
vn 0.000000 1.000000 0.000000
vn 0.000000 1.000000 0.000000
vn 0.000000 1.000000 0.000000
vn 0.000000 -1.000000 0.000000
vn 0.000000 -1.000000 0.000000
vn 0.000000 -1.000000 0.000000
vn 0.000000 -1.000000 0.000000
vn 0.000000 1.000000 0.000000
vn 0.000000 1.000000 0.000000
vn 0.000000 1.000000 0.000000
vn 0.000000 1.000000 0.000000
vn 0.000000 -1.000000 0.000000
vn 0.000000 -1.000000 0.000000
vn 0.000000 -1.000000 0.000000
vn 0.000000 -1.000000 0.000000
vn 0.000000 1.000000 0.000000
vn 0.000000 1.000000 0.000000
vn 0.000000 1.000000 0.000000
vn 0.000000 1.000000 0.000000
vn 0.000000 -1.000000 0.000000
vn 0.000000 -1.000000 0.000000
vn 0.000000 -1.000000 0.000000
vn 0.000000 -1.000000 0.000000
vn 0.000000 1.000000 0.000000
vn 0.000000 1.000000 0.000000
vn 0.000000 1.000000 0.000000
vn 0.000000 1.000000 0.000000
vn 0.000000 -1.000000 0.000000
vn 0.000000 -1.000000 0.000000
vn 0.000000 -1.000000 0.000000
vn 0.000000 -1.000000 0.000000
vn 0.000000 1.000000 0.000000
vn 0.000000 1.000000 0.000000
vn 0.000000 1.000000 0.000000
vn 0.000000 1.000000 0.000000
s off
g pCylinder16
usemtl initialShadingGroup
f 13/29/1 14/30/2 15/31/3 16/32/4
f 14/30/5 17/33/6 18/34/7 15/31/8
f 17/33/9 19/35/10 20/36/11 18/34/12
f 19/35/13 21/37/14 22/38/15 20/36/16
f 21/37/17 23/39/18 24/40/19 22/38/20
f 23/39/21 13/41/22 16/42/23 24/40/24
f 1/15/25 7/18/26 8/17/27 2/16/28
f 2/16/29 8/17/30 9/20/31 3/19/32
f 3/19/33 9/20/34 10/22/35 4/21/36
f 4/21/37 10/22/38 11/24/39 5/23/40
f 5/23/41 11/24/42 12/26/43 6/25/44
f 6/25/45 12/26/46 7/28/47 1/27/48
f 1/1/49 2/2/50 14/30/51 13/29/52
f 8/9/53 7/8/54 16/32/55 15/31/56
f 2/2/57 3/3/58 17/33/59 14/30/60
f 9/10/61 8/9/62 15/31/63 18/34/64
f 3/3/65 4/4/66 19/35/67 17/33/68
f 10/11/69 9/10/70 18/34/71 20/36/72
f 4/4/73 5/5/74 21/37/75 19/35/76
f 11/12/77 10/11/78 20/36/79 22/38/80
f 5/5/81 6/6/82 23/39/83 21/37/84
f 12/13/85 11/12/86 22/38/87 24/40/88
f 6/6/89 1/7/90 13/41/91 23/39/92
f 7/14/93 12/13/94 24/40/95 16/42/96
